<svg width="1440" height="1024" viewBox="0 0 1440 1024" fill="none" xmlns="http://www.w3.org/2000/svg">
<rect width="1440" height="1024" fill="white"/>
<path d="M563.796 356.769V736.119H487.708V356.769H563.796Z" fill="#FFC800"/>
<rect width="79.1627" height="79.1627" transform="matrix(0.707361 -0.706853 0.707361 0.706853 469.883 285.453)" fill="#FFC800"/>
<path d="M541.634 833.009V908.879H526.417V833.009H541.634ZM590.039 847.792C597.213 847.792 603.01 850.074 607.43 854.639C611.851 859.132 614.061 865.437 614.061 873.553V908.879H598.843V875.618C598.843 870.835 597.648 867.176 595.256 864.639C592.865 862.031 589.604 860.726 585.474 860.726C581.271 860.726 577.937 862.031 575.474 864.639C573.082 867.176 571.887 870.835 571.887 875.618V908.879H556.669V848.661H571.887V856.161C573.916 853.552 576.488 851.523 579.604 850.074C582.793 848.552 586.271 847.792 590.039 847.792ZM624.619 878.553C624.619 872.466 625.815 867.067 628.206 862.357C630.67 857.647 634.003 854.023 638.206 851.487C642.409 848.951 647.083 847.683 652.228 847.683C656.141 847.683 659.873 848.552 663.423 850.292C666.974 851.958 669.8 854.205 671.902 857.031V828.444H687.337V908.879H671.902V899.966C670.018 902.937 667.373 905.328 663.967 907.14C660.561 908.951 656.612 909.857 652.119 909.857C647.047 909.857 642.409 908.553 638.206 905.944C634.003 903.335 630.67 899.676 628.206 894.966C625.815 890.183 624.619 884.712 624.619 878.553ZM672.011 878.77C672.011 875.074 671.286 871.922 669.837 869.313C668.387 866.632 666.431 864.603 663.967 863.226C661.503 861.777 658.858 861.053 656.032 861.053C653.206 861.053 650.597 861.741 648.206 863.118C645.815 864.495 643.858 866.524 642.336 869.205C640.887 871.813 640.162 874.929 640.162 878.553C640.162 882.176 640.887 885.364 642.336 888.118C643.858 890.799 645.815 892.864 648.206 894.314C650.67 895.763 653.278 896.488 656.032 896.488C658.858 896.488 661.503 895.799 663.967 894.422C666.431 892.973 668.387 890.944 669.837 888.335C671.286 885.654 672.011 882.466 672.011 878.77ZM709.917 841.487C707.235 841.487 704.989 840.654 703.177 838.987C701.438 837.248 700.569 835.11 700.569 832.574C700.569 830.038 701.438 827.936 703.177 826.27C704.989 824.531 707.235 823.661 709.917 823.661C712.598 823.661 714.808 824.531 716.547 826.27C718.359 827.936 719.265 830.038 719.265 832.574C719.265 835.11 718.359 837.248 716.547 838.987C714.808 840.654 712.598 841.487 709.917 841.487ZM717.417 848.661V908.879H702.199V848.661H717.417Z" fill="#0077E4"/>
<path d="M768.104 908.879L747.669 883.227V908.879H732.452V828.444H747.669V874.205L767.887 848.661H787.669L761.147 878.879L787.887 908.879H768.104ZM851.907 877.466C851.907 879.64 851.762 881.596 851.472 883.335H807.45C807.813 887.683 809.334 891.089 812.016 893.553C814.697 896.017 817.994 897.248 821.907 897.248C827.559 897.248 831.581 894.821 833.972 889.966H850.385C848.646 895.763 845.313 900.546 840.385 904.314C835.458 908.009 829.407 909.857 822.233 909.857C816.436 909.857 811.219 908.589 806.581 906.053C802.016 903.444 798.429 899.785 795.82 895.074C793.284 890.364 792.016 884.929 792.016 878.77C792.016 872.538 793.284 867.067 795.82 862.357C798.356 857.647 801.907 854.023 806.472 851.487C811.037 848.951 816.291 847.683 822.233 847.683C827.958 847.683 833.067 848.915 837.559 851.379C842.125 853.842 845.639 857.357 848.103 861.922C850.639 866.415 851.907 871.596 851.907 877.466ZM836.146 873.118C836.074 869.205 834.661 866.089 831.907 863.77C829.153 861.379 825.784 860.183 821.798 860.183C818.03 860.183 814.842 861.342 812.233 863.661C809.697 865.908 808.139 869.06 807.559 873.118H836.146ZM920.624 848.661L883.341 937.357H867.145L880.189 907.357L856.058 848.661H873.123L888.667 890.727L904.428 848.661H920.624Z" fill="#FFC800"/>
<path d="M878.118 735.292L741.125 565.417L740.077 734.436L663.991 733.965L666.344 354.622L742.43 355.093L741.375 525.2L880.472 355.949L972.318 356.518L814.632 543.589L974.313 735.887L878.118 735.292Z" fill="#0077E4"/>
<ellipse rx="127.696" ry="127.649" transform="matrix(0.868724 -0.495296 0.495833 0.868418 720.186 246.1)" fill="#0077E4"/>
<ellipse rx="38.047" ry="38.0331" transform="matrix(0.868724 -0.495296 0.495833 0.868418 722.871 189.04)" fill="white"/>
<rect width="76.7071" height="76.7017" transform="matrix(0.7413 -0.671174 0.671704 0.740819 665.531 734.882)" fill="#0077E4"/>
<rect width="76.7071" height="76.7017" transform="matrix(0.7413 -0.671174 0.671704 0.740819 665.531 661.14)" fill="#0077E4"/>
<rect width="66.5262" height="66.5215" transform="matrix(0.7413 -0.671174 0.671704 0.740819 674.484 417.461)" fill="#0077E4"/>
<rect x="692.695" y="343.545" width="76.7319" height="76.6768" fill="#0077E4"/>
<rect width="66.5262" height="66.5215" transform="matrix(0.7413 -0.671174 0.671704 0.740819 676.398 464.228)" fill="#0077E4"/>
</svg>
